<?xml version="1.0" encoding="UTF-8"?>
<svg width="197px" height="75px" viewBox="0 0 197 75" version="1.1" xmlns="http://www.w3.org/2000/svg" xmlns:xlink="http://www.w3.org/1999/xlink">
    <!-- Generator: Sketch 49.3 (51167) - http://www.bohemiancoding.com/sketch -->
    <title>t</title>
    <desc>Created with Sketch.</desc>
    <defs></defs>
    <g id="t" stroke="none" stroke-width="1" fill="none" fill-rule="evenodd">
        <path d="M53.7039688,12.732 L53.7039688,58.172 L49.2879688,58.172 L49.2879688,36.924 L22.3439688,36.924 L22.3439688,58.172 L17.8639687,58.172 L17.8639687,12.732 L22.3439688,12.732 L22.3439688,32.956 L49.2879688,32.956 L49.2879688,12.732 L53.7039688,12.732 Z M64.1999687,58.172 L64.1999687,24.828 L68.5519688,24.828 L68.5519688,58.172 L64.1999687,58.172 Z M64.1999687,17.852 L64.1999687,11.452 L68.5519688,11.452 L68.5519688,17.852 L64.1999687,17.852 Z M79.0479687,58.172 L79.0479687,12.732 L98.2479687,12.732 C100.210645,12.732 102.013294,13.1479958 103.655969,13.98 C105.298644,14.8120042 106.717296,15.8999933 107.911969,17.244 C109.106641,18.5880067 110.034632,20.1133248 110.695969,21.82 C111.357305,23.5266752 111.687969,25.2546579 111.687969,27.004 C111.687969,28.6680083 111.442638,30.2573258 110.951969,31.772 C110.4613,33.2866742 109.77864,34.6519939 108.903969,35.868 C108.029298,37.0840061 106.973308,38.1079958 105.735969,38.94 C104.498629,39.7720042 103.111976,40.3373318 101.575969,40.636 L112.711969,58.172 L107.655969,58.172 L96.9679688,41.404 L83.5279687,41.404 L83.5279687,58.172 L79.0479687,58.172 Z M83.5279687,37.436 L98.3759687,37.436 C99.698642,37.436 100.903963,37.1480029 101.991969,36.572 C103.079974,35.9959971 104.007965,35.2173382 104.775969,34.236 C105.543973,33.2546618 106.1413,32.1453395 106.567969,30.908 C106.994638,29.6706605 107.207969,28.3693402 107.207969,27.004 C107.207969,25.6386598 106.962638,24.326673 106.471969,23.068 C105.9813,21.809327 105.319973,20.7106714 104.487969,19.772 C103.655965,18.8333286 102.674641,18.0866694 101.543969,17.532 C100.413296,16.9773306 99.2293083,16.7 97.9919688,16.7 L83.5279687,16.7 L83.5279687,37.436 Z M133.383969,58.812 C130.951957,58.812 128.722646,58.3533379 126.695969,57.436 C124.669292,56.5186621 122.90931,55.260008 121.415969,53.66 C119.922628,52.059992 118.759973,50.2146771 117.927969,48.124 C117.095965,46.0333229 116.679969,43.7933453 116.679969,41.404 C116.679969,39.0573216 117.095965,36.8493437 117.927969,34.78 C118.759973,32.7106563 119.911961,30.8973411 121.383969,29.34 C122.855976,27.7826589 124.615959,26.5453379 126.663969,25.628 C128.711979,24.7106621 130.930623,24.252 133.319969,24.252 C135.751981,24.252 137.981292,24.7106621 140.007969,25.628 C142.034646,26.5453379 143.773295,27.7933254 145.223969,29.372 C146.674643,30.9506746 147.805298,32.7639898 148.615969,34.812 C149.426639,36.8600102 149.831969,39.0359885 149.831969,41.34 L149.831969,42.364 C149.831969,42.705335 149.810636,42.9399994 149.767969,43.068 L121.223969,43.068 C121.351969,44.860009 121.767965,46.5133258 122.471969,48.028 C123.175972,49.5426742 124.08263,50.8546611 125.191969,51.964 C126.301308,53.0733389 127.570628,53.9373302 128.999969,54.556 C130.429309,55.1746698 131.954627,55.484 133.575969,55.484 C134.642641,55.484 135.709297,55.3346682 136.775969,55.036 C137.842641,54.7373318 138.823964,54.3320026 139.719969,53.82 C140.615973,53.3079974 141.426632,52.6786704 142.151969,51.932 C142.877306,51.1853296 143.431967,50.3640045 143.815969,49.468 L147.591969,50.492 C147.079966,51.7293395 146.35464,52.8493283 145.415969,53.852 C144.477297,54.8546717 143.389308,55.7293296 142.151969,56.476 C140.914629,57.2226704 139.54931,57.7986646 138.055969,58.204 C136.562628,58.6093354 135.00531,58.812 133.383969,58.812 Z M145.671969,39.74 C145.543968,37.947991 145.127972,36.3160074 144.423969,34.844 C143.719965,33.3719926 142.823974,32.102672 141.735969,31.036 C140.647963,29.969328 139.389309,29.1373363 137.959969,28.54 C136.530628,27.9426637 135.00531,27.644 133.383969,27.644 C131.762627,27.644 130.226643,27.9426637 128.775969,28.54 C127.325295,29.1373363 126.055974,29.969328 124.967969,31.036 C123.879963,32.102672 123.005305,33.3826592 122.343969,34.876 C121.682632,36.3693408 121.287969,37.9906579 121.159969,39.74 L145.671969,39.74 Z M167.623969,58.812 C165.021289,58.812 162.482648,58.3853376 160.007969,57.532 C157.53329,56.6786624 155.399978,55.4413414 153.607969,53.82 L155.591969,50.876 C157.469311,52.4120077 159.378626,53.5639962 161.319969,54.332 C163.261312,55.1000038 165.341291,55.484 167.559969,55.484 C170.247982,55.484 172.391961,54.9400054 173.991969,53.852 C175.591977,52.7639946 176.391969,51.2173434 176.391969,49.212 C176.391969,48.2733286 176.178638,47.4946698 175.751969,46.876 C175.3253,46.2573302 174.695973,45.7133357 173.863969,45.244 C173.031965,44.7746643 171.986642,44.3586685 170.727969,43.996 C169.469296,43.6333315 168.007977,43.2600019 166.343969,42.876 C164.423959,42.4066643 162.759976,41.9373357 161.351969,41.468 C159.943962,40.9986643 158.781307,40.4653363 157.863969,39.868 C156.946631,39.2706637 156.263971,38.534671 155.815969,37.66 C155.367967,36.785329 155.143969,35.6866733 155.143969,34.364 C155.143969,32.6999917 155.474632,31.2280064 156.135969,29.948 C156.797305,28.6679936 157.693296,27.6120042 158.823969,26.78 C159.954641,25.9479958 161.277295,25.3186688 162.791969,24.892 C164.306643,24.4653312 165.917294,24.252 167.623969,24.252 C170.183982,24.252 172.509292,24.6679958 174.599969,25.5 C176.690646,26.3320042 178.375962,27.4306598 179.655969,28.796 L177.543969,31.356 C176.306629,30.0759936 174.802644,29.1160032 173.031969,28.476 C171.261293,27.8359968 169.415978,27.516 167.495969,27.516 C166.343963,27.516 165.277307,27.6333322 164.295969,27.868 C163.314631,28.1026678 162.450639,28.4759974 161.703969,28.988 C160.957298,29.5000026 160.370638,30.1506627 159.943969,30.94 C159.5173,31.7293373 159.303969,32.657328 159.303969,33.724 C159.303969,34.6200045 159.453301,35.3453306 159.751969,35.9 C160.050637,36.4546694 160.541299,36.9346646 161.223969,37.34 C161.906639,37.7453354 162.77063,38.1079984 163.815969,38.428 C164.861307,38.7480016 166.130628,39.078665 167.623969,39.42 C169.757313,39.9320026 171.634627,40.4439974 173.255969,40.956 C174.87731,41.4680026 176.231963,42.0653299 177.319969,42.748 C178.407974,43.4306701 179.229299,44.2626618 179.783969,45.244 C180.338638,46.2253382 180.615969,47.419993 180.615969,48.828 C180.615969,51.9000154 179.442647,54.331991 177.095969,56.124 C174.74929,57.916009 171.591989,58.812 167.623969,58.812 Z" id="HiRes" fill="#008080"></path>
        <rect id="Rectangle" fill="#008080" x="137" y="0" width="60" height="4"></rect>
        <rect id="Rectangle-2" fill="#008080" transform="translate(195.000000, 10.000000) scale(-1, 1) translate(-195.000000, -10.000000) " x="193" y="0" width="4" height="20"></rect>
        <rect id="Rectangle-3" fill="#008080" x="0" y="71" width="60" height="4"></rect>
        <rect id="Rectangle-4" fill="#008080" x="0" y="55" width="4" height="20"></rect>
    </g>
</svg>