<svg xmlns="http://www.w3.org/2000/svg" width="197" height="75"><g fill="teal" fill-rule="evenodd"><path d="M53.704 12.732v45.44h-4.416V36.924H22.344v21.248h-4.48v-45.44h4.48v20.224h26.944V12.732h4.416zM64.2 58.172V24.828h4.352v33.344H64.2zm0-40.32v-6.4h4.352v6.4H64.2zm14.848 40.32v-45.44h19.2c1.963 0 3.765.416 5.408 1.248a14.25 14.25 0 0 1 4.256 3.264 14.967 14.967 0 0 1 2.784 4.576c.661 1.707.992 3.435.992 5.184 0 1.664-.245 3.253-.736 4.768a14.74 14.74 0 0 1-2.048 4.096 12.39 12.39 0 0 1-3.168 3.072c-1.237.832-2.624 1.397-4.16 1.696l11.136 17.536h-5.056L96.968 41.404h-13.44v16.768h-4.48zm4.48-20.736h14.848c1.323 0 2.528-.288 3.616-.864a8.625 8.625 0 0 0 2.784-2.336 11.365 11.365 0 0 0 1.792-3.328c.427-1.237.64-2.539.64-3.904 0-1.365-.245-2.677-.736-3.936-.49-1.259-1.152-2.357-1.984-3.296a9.468 9.468 0 0 0-2.944-2.24 7.966 7.966 0 0 0-3.552-.832H83.528v20.736zm49.856 21.376c-2.432 0-4.661-.459-6.688-1.376a16.39 16.39 0 0 1-5.28-3.776 17.534 17.534 0 0 1-3.488-5.536c-.832-2.09-1.248-4.33-1.248-6.72 0-2.347.416-4.555 1.248-6.624.832-2.07 1.984-3.883 3.456-5.44 1.472-1.557 3.232-2.795 5.28-3.712 2.048-.917 4.267-1.376 6.656-1.376 2.432 0 4.661.459 6.688 1.376 2.027.917 3.765 2.165 5.216 3.744a17.458 17.458 0 0 1 3.392 5.44c.81 2.048 1.216 4.224 1.216 6.528v1.024c0 .341-.021.576-.064.704h-28.544c.128 1.792.544 3.445 1.248 4.96.704 1.515 1.61 2.827 2.72 3.936A12.186 12.186 0 0 0 129 54.556c1.43.619 2.955.928 4.576.928 1.067 0 2.133-.15 3.2-.448a12.937 12.937 0 0 0 2.944-1.216 10.949 10.949 0 0 0 2.432-1.888 8.108 8.108 0 0 0 1.664-2.464l3.776 1.024a11.088 11.088 0 0 1-2.176 3.36 15.19 15.19 0 0 1-3.264 2.624 15.985 15.985 0 0 1-4.096 1.728c-1.493.405-3.05.608-4.672.608zm12.288-19.072c-.128-1.792-.544-3.424-1.248-4.896s-1.6-2.741-2.688-3.808a11.888 11.888 0 0 0-3.776-2.496 11.747 11.747 0 0 0-4.576-.896c-1.621 0-3.157.299-4.608.896-1.45.597-2.72 1.43-3.808 2.496-1.088 1.067-1.963 2.347-2.624 3.84-.661 1.493-1.056 3.115-1.184 4.864h24.512zm21.952 19.072c-2.603 0-5.141-.427-7.616-1.28-2.475-.853-4.608-2.09-6.4-3.712l1.984-2.944c1.877 1.536 3.787 2.688 5.728 3.456 1.941.768 4.021 1.152 6.24 1.152 2.688 0 4.832-.544 6.432-1.632 1.6-1.088 2.4-2.635 2.4-4.64 0-.939-.213-1.717-.64-2.336-.427-.619-1.056-1.163-1.888-1.632-.832-.47-1.877-.885-3.136-1.248a85.313 85.313 0 0 0-4.384-1.12c-1.92-.47-3.584-.939-4.992-1.408-1.408-.47-2.57-1.003-3.488-1.6-.917-.597-1.6-1.333-2.048-2.208-.448-.875-.672-1.973-.672-3.296 0-1.664.33-3.136.992-4.416a9.004 9.004 0 0 1 2.688-3.168c1.13-.832 2.453-1.461 3.968-1.888 1.515-.427 3.125-.64 4.832-.64 2.56 0 4.885.416 6.976 1.248 2.09.832 3.776 1.93 5.056 3.296l-2.112 2.56c-1.237-1.28-2.741-2.24-4.512-2.88-1.77-.64-3.616-.96-5.536-.96-1.152 0-2.219.117-3.2.352-.981.235-1.845.608-2.592 1.12a5.518 5.518 0 0 0-1.76 1.952c-.427.79-.64 1.717-.64 2.784 0 .896.15 1.621.448 2.176.299.555.79 1.035 1.472 1.44.683.405 1.547.768 2.592 1.088 1.045.32 2.315.65 3.808.992a84.008 84.008 0 0 1 5.632 1.536c1.621.512 2.976 1.11 4.064 1.792 1.088.683 1.91 1.515 2.464 2.496.555.981.832 2.176.832 3.584 0 3.072-1.173 5.504-3.52 7.296-2.347 1.792-5.504 2.688-9.472 2.688zM137 0h60v4h-60z"/><path d="M197 0h-4v20h4zM0 71h60v4H0z"/><path d="M0 55h4v20H0z"/></g></svg>