<?xml version="1.0" encoding="UTF-8"?>
<svg width="74px" height="74px" viewBox="0 0 74 74" version="1.1" xmlns="http://www.w3.org/2000/svg" xmlns:xlink="http://www.w3.org/1999/xlink">
    <!-- Generator: Sketch 49.3 (51167) - http://www.bohemiancoding.com/sketch -->
    <title>Group</title>
    <desc>Created with Sketch.</desc>
    <defs></defs>
    <g id="Page-1" stroke="none" stroke-width="1" fill="none" fill-rule="evenodd">
        <g id="t" transform="translate(-94.000000, -10.000000)">
            <g id="Group" transform="translate(96.000000, 12.000000)">
                <circle id="Oval-2" stroke="#FFFFFF" stroke-width="3" cx="35" cy="35" r="35"></circle>
                <path d="M6.82,28.0634078 C6.82,25.0033234 8.92,22.6308984 11.53,22.6308984 L15.67,22.6308984 L15.67,47.0428078 L11.53,47.0428078 C8.98,47.0428078 6.82,44.464085 6.82,41.5071495 L6.82,28.0634078 Z M20.32,36.3153209 C20.11,36.3840868 20.11,36.7279165 20.32,36.7279165 C21.97,36.6591506 23.44,35.8683423 24.52,34.5274064 C25.51,35.7651933 26.08,36.3840868 26.08,39.5129372 C26.08,43.1231491 22.6,47.0428078 19.42,47.0428078 L16.42,47.0428078 L16.42,22.6308984 L19.03,22.6308984 C22.27,22.6308984 25.06,25.6565999 25.06,29.5762586 C25.06,32.8426408 22.99,35.5932785 20.32,36.3153209 Z M24.48,47.3178716 C21.69,47.3178716 19.5,44.8422977 19.5,41.7134473 L19.5,28.2353227 C19.5,25.1752383 21.69,22.6652814 24.48,22.6652814 L29.28,22.6652814 L29.28,42.4011067 C28.98,45.1173614 26.91,47.3178716 24.48,47.3178716 Z M30.15,42.2291919 L30.12,42.057277 L30.12,22.6652814 L30.39,22.6652814 C35.16,22.6652814 38.91,27.0319187 38.91,32.4644281 C38.91,37.9313205 34.95,42.4011067 30.15,42.2291919 Z M49.44,31.0547263 L38.61,45.598723 C34.23,50.7561687 27.06,43.5357448 32.04,38.1032354 L41.76,25.0377064 C46.32,18.9175376 53.73,25.8628977 49.44,31.0547263 Z M63.18,28.6479184 L50.55,45.3580422 C47.1,50.1372752 39.93,44.8422977 44.19,39.5817031 L54.84,25.1064723 C57.99,20.808601 63.18,23.0778771 63.18,27.4101314 L63.18,28.6479184 Z M58.35,47.1459567 C56.13,47.1459567 54.18,46.2176165 53.73,42.6761705 L63.18,30.0232372 L63.18,41.7478303 C63.18,44.8079147 61.02,47.1459567 58.35,47.1459567 Z" id="BPM" fill="#FFFFFF"></path>
            </g>
        </g>
    </g>
</svg>